<svg xmlns="http://www.w3.org/2000/svg" width="50" height="50" viewBox="0 0 50 50"><defs><style>.a{fill:#f7ff00;}.b{fill:blue;}.c{fill:#002bff;}</style></defs><g transform="translate(-944 -390)"><path class="a" d="M16.415,49.883A24.724,24.724,0,0,1,9.81,46.149a25.522,25.522,0,0,1-5.194-5.535,25.9,25.9,0,0,1-3.4-6.941,26.431,26.431,0,0,1,.747-17.964A25.814,25.814,0,0,1,7.322,7.533a25.35,25.35,0,0,1,3.7-3.141,24.791,24.791,0,0,1,4.247-2.371,24.4,24.4,0,0,1,19.462,0,24.79,24.79,0,0,1,4.247,2.371,25.349,25.349,0,0,1,3.7,3.141,25.814,25.814,0,0,1,5.358,8.175,26.132,26.132,0,0,1,1.457,4.828A26.629,26.629,0,0,1,50,25.72a26.387,26.387,0,0,1-1.189,7.861A25.907,25.907,0,0,1,45.49,40.46a25.545,25.545,0,0,1-5.083,5.516,24.765,24.765,0,0,1-6.474,3.773L25.2,26.955,16.415,49.883h0Z" transform="translate(944 390)"/><path class="b" d="M10.356,30.11h0A14.773,14.773,0,0,1,6.2,27.932a15.279,15.279,0,0,1-3.278-3.345A15.528,15.528,0,0,1,.773,20.335a15.914,15.914,0,0,1,.406-10.91A15.413,15.413,0,0,1,4.393,4.52,14.934,14.934,0,0,1,9.161,1.213a14.661,14.661,0,0,1,11.677,0A14.934,14.934,0,0,1,25.607,4.52a15.413,15.413,0,0,1,3.215,4.905,15.915,15.915,0,0,1,.435,10.818,15.536,15.536,0,0,1-2.073,4.192,15.3,15.3,0,0,1-3.165,3.329A14.818,14.818,0,0,1,20,29.987l-4.8-12.7Z" transform="translate(954 399.671)"/><path class="c" d="M14.4,19.136h0L7.2,15.309,0,19.136,7.2,0l7.2,19.136Z" transform="translate(962 420.864)"/></g></svg>